# xmcd CD database file
#
# Track frame offsets:
#	150
#	13309
#	29345
#	40532
#	58888
#	76347
#	93372
#	108165
#	125853
#	136743
#	148755
#	164133
#	175792
#	192126
#
# Disc length: 2840 seconds
#
# Revision: 0
# Processed by: cddbd v1.5.2PL0 Copyright (c) Steve Scherf et al.
# Submitted via: CDex 1.78
#
DISCID=c00b160e
DTITLE=Jean Stafford - The Golden Voice Of Country
DYEAR=2015
DGENRE=Country
TTITLE0=Jean Stafford - 01 Rock Me By The Fire
TTITLE1=Jean Stafford - 02 Racoon Mountain
TTITLE2=Jean Stafford - 03 Let's Hear It For The Working Man
TTITLE3=Jean Stafford - 04 Sweet Red Wine
TTITLE4=Jean Stafford - 05 Someday I'll Take Home The Roses
TTITLE5=Jean Stafford - 06 Someone To Call Me Darlin'
TTITLE6=Jean Stafford - 07 Can I See You Tonight
TTITLE7=Jean Stafford - 08 Fire At Shepherds Flat
TTITLE8=Jean Stafford - 09 Who's Cheatin' Who
TTITLE9=Jean Stafford - 10 Ease The Fever
TTITLE10=Jean Stafford - 11 Along The Razor's Edge
TTITLE11=Jean Stafford - 12 Travellin' Round
TTITLE12=Jean Stafford - 13 Tribute To Robin
TTITLE13=Jean Stafford - 14 It'll End In Tears
EXTD=YEAR: 2015
EXTT0=
EXTT1=
EXTT2=
EXTT3=
EXTT4=
EXTT5=
EXTT6=
EXTT7=
EXTT8=
EXTT9=
EXTT10=
EXTT11=
EXTT12=
EXTT13=
PLAYORDER=
